# xmcd CD database file
#
# Track frame offsets:
#	150
#	205325
#	272825
#
# Disc length: 3704 seconds
#
# Revision: 0
# Processed by: cddbd v1.5.1PL0 Copyright (c) Steve Scherf et al.
# Submitted via: CDex 1.51
#
DISCID=280e7603
DTITLE=Deuter - Osho Gourishankar Meditation
DYEAR=1980
DGENRE=New Age
TTITLE0=First,Second,Third Stage: 15&15&15 Minute Music
TTITLE1=Fourth Stage: 15 Minute Silence
TTITLE2=Ending
EXTD=YEAR: 1980
EXTT0=
EXTT1=
EXTT2=
PLAYORDER=
